<?xml version="1.0" encoding="UTF-8"?>
<svg id="Layer_1" xmlns="http://www.w3.org/2000/svg" width="11in" height="7.59in" version="1.1" viewBox="0 0 792 546.77">
  <!-- Generator: Adobe Illustrator 30.4.0, SVG Export Plug-In . SVG Version: 2.1.4 Build 226)  -->
  <path d="M20.2,169.75V15.03h30.98v128.42h31.88v26.3H20.2Z" fill="#efeae2"/>
  <g>
    <path d="M91.71,169.75V15.03h61.96v29.9h-30.44v30.08h29.18v29.18h-29.18v35.48h32.42v30.08h-63.94Z" fill="#efeae2"/>
    <path d="M179.24,169.75V44.75h-18.37V15.03h67.72v29.72h-18.37v125h-30.98Z" fill="#efeae2"/>
    <path d="M240.12,60.42l5.76-20.89h-11.17V13.41h32.96v25.4l-9,21.61h-18.55Z" fill="#efeae2"/>
    <path d="M285.32,160.74c-6.25-6.96-9.37-18.19-9.37-33.68v-15.13h30.44v19.27c0,7.69,2.46,11.53,7.38,11.53,2.76,0,4.68-.81,5.76-2.43,1.08-1.62,1.62-4.35,1.62-8.2,0-5.04-.6-9.21-1.8-12.52-1.2-3.3-2.73-6.06-4.59-8.29-1.86-2.22-5.19-5.67-10-10.36l-13.33-13.33c-10.33-10.09-15.49-21.25-15.49-33.5,0-13.21,3.03-23.26,9.1-30.17,6.06-6.9,14.92-10.36,26.57-10.36,13.93,0,23.96,3.69,30.08,11.08s9.19,18.94,9.19,34.67h-31.52l-.18-10.63c0-2.04-.57-3.66-1.71-4.86-1.14-1.2-2.73-1.8-4.77-1.8-2.4,0-4.2.66-5.4,1.98-1.2,1.32-1.8,3.12-1.8,5.4,0,5.04,2.88,10.27,8.64,15.67l18.01,17.29c4.2,4.08,7.68,7.96,10.45,11.62,2.76,3.66,4.98,7.99,6.66,12.97,1.68,4.98,2.52,10.9,2.52,17.74,0,15.25-2.79,26.81-8.37,34.67-5.58,7.87-14.8,11.8-27.65,11.8-14.05,0-24.2-3.48-30.44-10.45Z" fill="#efeae2"/>
    <path d="M404.2,169.75V15.03h47.19l12.97,94.38,12.97-94.38h47.55v154.72h-28.28V58.26l-17.83,111.49h-27.74l-18.91-111.49v111.49h-27.92Z" fill="#efeae2"/>
    <path d="M534.42,169.75l14.95-154.72h52.41l14.77,154.72h-29.36l-2.16-25.04h-18.73l-1.8,25.04h-30.08ZM568.64,120.04h14.05l-6.84-78.71h-1.44l-5.76,78.71Z" fill="#efeae2"/>
    <path d="M625.91,169.75V15.03h30.62v61.96l14.41-61.96h31.16l-17.29,70.78,20.89,83.93h-32.06l-16.93-74.93v74.93h-30.8Z" fill="#efeae2"/>
    <path d="M710.92,169.75V15.03h61.96v29.9h-30.44v30.08h29.18v29.18h-29.18v35.48h32.42v30.08h-63.94Z" fill="#efeae2"/>
  </g>
  <g>
    <path d="M26.51,340.86c-6.25-6.96-9.37-18.19-9.37-33.68v-15.13h30.44v19.27c0,7.69,2.46,11.53,7.38,11.53,2.76,0,4.68-.81,5.76-2.43,1.08-1.62,1.62-4.35,1.62-8.2,0-5.04-.6-9.21-1.8-12.52-1.2-3.3-2.73-6.06-4.59-8.29-1.86-2.22-5.19-5.67-10-10.36l-13.33-13.33c-10.33-10.09-15.49-21.25-15.49-33.5,0-13.21,3.03-23.26,9.1-30.17,6.06-6.9,14.92-10.36,26.57-10.36,13.93,0,23.96,3.69,30.08,11.08s9.19,18.94,9.19,34.67h-31.52l-.18-10.63c0-2.04-.57-3.66-1.71-4.86-1.14-1.2-2.73-1.8-4.77-1.8-2.4,0-4.2.66-5.4,1.98-1.2,1.32-1.8,3.12-1.8,5.4,0,5.04,2.88,10.27,8.64,15.67l18.01,17.29c4.2,4.08,7.68,7.96,10.45,11.62,2.76,3.66,4.98,7.99,6.66,12.97,1.68,4.98,2.52,10.9,2.52,17.74,0,15.25-2.79,26.81-8.37,34.67-5.58,7.87-14.8,11.8-27.65,11.8-14.05,0-24.2-3.48-30.44-10.45Z" fill="#e73620"/>
    <path d="M111.7,339.87c-6.48-7.62-9.73-18.34-9.73-32.15v-73.67c0-13.33,3.24-23.38,9.73-30.17,6.48-6.78,15.97-10.18,28.46-10.18s21.97,3.39,28.46,10.18c6.48,6.79,9.73,16.84,9.73,30.17v73.67c0,13.93-3.24,24.68-9.73,32.24-6.48,7.56-15.97,11.35-28.46,11.35s-21.97-3.81-28.46-11.44ZM145.74,319.24c.96-2.4,1.44-5.76,1.44-10.09v-75.65c0-3.36-.45-6.09-1.35-8.2-.9-2.1-2.73-3.15-5.49-3.15-5.16,0-7.75,3.9-7.75,11.71v75.47c0,4.44.54,7.81,1.62,10.09,1.08,2.28,3.06,3.42,5.94,3.42s4.62-1.2,5.58-3.6Z" fill="#e73620"/>
    <path d="M190.77,349.86v-154.72h47.19l12.97,94.38,12.97-94.38h47.55v154.72h-28.28v-111.49l-17.83,111.49h-27.74l-18.91-111.49v111.49h-27.92Z" fill="#e73620"/>
    <path d="M325.13,349.86v-154.72h61.96v29.9h-30.44v30.08h29.18v29.18h-29.18v35.48h32.42v30.08h-63.94Z" fill="#e73620"/>
    <path d="M412.66,349.86v-125h-18.37v-29.72h67.72v29.72h-18.37v125h-30.98Z" fill="#e73620"/>
    <path d="M469.22,349.86v-154.72h29.9v154.72h-29.9Z" fill="#e73620"/>
    <path d="M511.54,349.86v-154.72h31.88l14.23,74.03v-74.03h29.9v154.72h-30.26l-15.49-77.45v77.45h-30.26Z" fill="#e73620"/>
    <path d="M608.17,339.51c-5.46-7.86-8.19-19.78-8.19-35.75v-66.64c0-14.29,3.18-25.09,9.54-32.42,6.36-7.32,15.85-10.99,28.46-10.99,10.2,0,18.13,2.04,23.78,6.12,5.64,4.08,9.54,10.03,11.71,17.83,2.16,7.81,3.24,17.83,3.24,30.08h-30.26v-13.87c0-3.72-.51-6.6-1.53-8.64-1.02-2.04-2.85-3.06-5.49-3.06-5.88,0-8.83,3.84-8.83,11.53v74.93c0,4.68.6,8.23,1.8,10.63,1.2,2.4,3.3,3.6,6.3,3.6s5.1-1.2,6.3-3.6c1.2-2.4,1.8-5.94,1.8-10.63v-22.15h-8.29v-26.66h37.83v90.06h-12.43l-5.22-12.97c-5.53,9.61-14.05,14.41-25.58,14.41s-19.48-3.93-24.95-11.8Z" fill="#e73620"/>
  </g>
  <g>
    <path d="M96.49,532.98h-36.24v-63.52c0-4.8-1.14-5.75-1.27-5.85-.4-.29-1.56-.87-4.44-1.12v70.49H17.2v-160.72h50.55c8.25,0,14.8,1.96,19.47,5.82,4.64,3.83,7.8,9.23,9.39,16.04,1.49,6.38,2.24,14.58,2.24,24.36s-1.21,16.42-3.7,21.79c-1.66,3.59-4.11,6.5-7.3,8.71,2.27,1.46,4.11,3.41,5.48,5.85,2.35,4.17,3.54,9.75,3.54,16.61l-.38,61.54ZM66.25,526.98h24.28l.34-55.55c0-5.79-.93-10.38-2.77-13.64-1.67-2.95-4.34-4.77-8.17-5.56l-10.82-2.22,10.45-3.56c4.88-1.66,8.19-4.5,10.13-8.69,2.09-4.5,3.14-10.99,3.14-19.27,0-9.33-.7-17.07-2.08-23-1.3-5.58-3.71-9.76-7.36-12.78-3.57-2.95-8.84-4.45-15.65-4.45H23.2v148.72h25.34v-70.6h3c5.2,0,8.67.75,10.93,2.36,2.55,1.82,3.78,5.33,3.78,10.73v57.52ZM59.11,435.54h-10.38v-34.64h10.2c2.5,0,4.53.62,6.03,1.84,1.56,1.27,2.55,3.25,3.05,6.04.39,2.23.59,5.4.59,9.71,0,11.31-3.19,17.05-9.48,17.05ZM54.72,429.54h4.38c3.14,0,3.48-7.73,3.48-11.05,0-3.89-.17-6.81-.49-8.66-.33-1.9-.86-2.38-.92-2.43-.39-.32-1.19-.5-2.25-.5h-4.2v22.64Z" fill="#1fc8d3"/>
    <path d="M176.65,532.98h-69.94v-160.72h67.96v35.9h-30.44v24.08h29.18v35.18h-29.18v29.48h32.42v36.08ZM112.71,526.98h57.94v-24.08h-32.42v-41.48h29.18v-23.18h-29.18v-36.08h30.44v-23.9h-55.96v148.72Z" fill="#1fc8d3"/>
    <path d="M268.81,532.98h-35.41l-2.16-25.04h-13.19l-1.8,25.04h-36.17l15.53-160.72h57.86l15.34,160.72ZM238.9,526.98h23.31l-14.2-148.72h-46.96l-14.37,148.72h23.98l1.8-25.04h24.28l2.16,25.04ZM234.92,483.26h-20.55l6.2-84.71h6.98l7.37,84.71ZM220.83,477.26h7.55l-4.1-47.13-3.45,47.13Z" fill="#1fc8d3"/>
    <path d="M344.33,532.98h-68.86v-160.72h36.98v128.42h31.88v32.3ZM281.47,526.98h56.86v-20.3h-31.88v-128.42h-24.98v148.72Z" fill="#1fc8d3"/>
    <path d="M386.11,532.98h-37.52v-32.3h37.52v32.3ZM354.59,526.98h25.52v-20.3h-25.52v20.3Z" fill="#1fc8d3"/>
  </g>
</svg>