<?xml version="1.0" encoding="UTF-8"?>
<svg id="Layer_1" xmlns="http://www.w3.org/2000/svg" width="11in" height="5.82in" version="1.1" viewBox="0 0 792 418.83">
  <!-- Generator: Adobe Illustrator 30.4.0, SVG Export Plug-In . SVG Version: 2.1.4 Build 226)  -->
  <g>
    <path d="M62.33,239.46c9.39,0,16.08,2.39,20.44,7.32,4.53,5.11,6.88,13.17,6.98,23.92l.37,75.4c.11,14.41-2.22,25.16-6.93,31.97-4.24,6.14-11.43,9.12-21.97,9.12H25.32v-147.73h37.01M43.86,372.03h12.2c9.46,0,15.34-5.86,15.34-15.3v-83.07c0-4.33-.37-7.63-1.12-10.11-1.44-4.7-4.5-6.86-6.83-7.85-2.36-1-5.36-1.46-9.42-1.46h-10.18v117.8M62.33,232.78H18.65v161.08h42.58c12.78,0,21.93-4,27.46-12,5.53-8,8.23-19.94,8.11-35.82l-.37-75.38c-.12-12.5-3.01-21.94-8.66-28.31-5.65-6.38-14.13-9.56-25.43-9.56h0ZM50.53,365.36v-104.45h3.5c3.07,0,5.34.31,6.82.94,1.47.63,2.49,1.85,3.04,3.66.55,1.81.83,4.53.83,8.16v83.07c0,5.75-2.89,8.63-8.66,8.63h-5.53Z" fill="#17c8d3"/>
    <path d="M166.24,239.46v17.78h-31.15v44.66h29.86v17.03h-29.86v50.29h33.18v17.97h-52.08v-147.73h50.05M172.91,232.78h-63.4v161.08h65.43v-31.32h-33.18v-36.94h29.86v-30.38h-29.86v-31.31h31.15v-31.13h0Z" fill="#17c8d3"/>
    <path d="M218.81,237.96c12.08,0,20.7,3.05,25.6,9.08,4.41,5.41,6.99,13.87,7.7,25.2h-18.82l-.07-4.45c-.02-4.77-1.93-7.82-3.55-9.56-1.7-1.82-4.78-3.99-9.76-3.99-5.52,0-8.76,2.34-10.51,4.29-2.35,2.63-3.54,6.02-3.54,10.07,0,7.11,3.66,14.22,10.89,21.12l18.37,17.95c4.04,3.99,7.41,7.8,10.02,11.32,2.39,3.23,4.36,7.14,5.85,11.63,1.49,4.49,2.24,10,2.24,16.37,0,14.41-2.48,25.27-7.37,32.28-4.42,6.34-11.88,9.43-22.81,9.43-12.31,0-21.11-2.9-26.14-8.62-5.25-5.96-7.92-16.27-7.92-30.65v-9.08h17.8v13.39c0,17.33,10.89,18.67,14.23,18.67,6.48,0,9.82-3.01,11.49-5.55,1.87-2.86,2.75-6.74,2.75-12.19,0-6.06-.73-11.06-2.23-15.28-1.48-4.15-3.45-7.72-5.83-10.62-2.07-2.52-5.56-6.19-10.65-11.25l-13.61-13.84-.03-.03-.03-.03c-9.34-9.28-13.88-19.14-13.88-30.15,0-12.04,2.59-21.14,7.68-27.05,4.92-5.7,12.16-8.47,22.13-8.47M218.81,231.28c-11.92,0-20.98,3.59-27.19,10.78-6.21,7.19-9.31,17.66-9.31,31.41,0,12.75,5.28,24.38,15.85,34.88l13.64,13.88c4.91,4.87,8.32,8.47,10.23,10.78,1.91,2.31,3.47,5.19,4.7,8.63,1.23,3.44,1.84,7.78,1.84,13.03,0,4-.55,6.85-1.66,8.53-1.11,1.69-3.07,2.53-5.9,2.53-5.04,0-7.56-4-7.56-12v-20.07h-31.15v15.75c0,16.13,3.19,27.82,9.58,35.06,6.39,7.25,16.77,10.88,31.15,10.88,13.15,0,22.58-4.09,28.29-12.28,5.72-8.18,8.57-20.22,8.57-36.1,0-7.13-.86-13.28-2.58-18.47-1.72-5.19-3.99-9.69-6.82-13.5-2.83-3.81-6.39-7.84-10.69-12.09l-18.43-18c-5.9-5.63-8.85-11.06-8.85-16.31,0-2.37.61-4.25,1.84-5.63,1.23-1.37,3.07-2.06,5.53-2.06,2.09,0,3.72.63,4.89,1.88,1.16,1.25,1.75,2.94,1.75,5.06l.19,11.06h32.25c0-16.37-3.13-28.41-9.4-36.1-6.27-7.69-16.53-11.53-30.78-11.53h0Z" fill="#17c8d3"/>
    <path d="M292.86,239.46v147.73h-17.25v-147.73h17.25M299.53,232.78h-30.6v161.08h30.6v-161.08h0Z" fill="#17c8d3"/>
    <path d="M349.84,237.96c8.94,0,15.79,1.71,20.37,5.07,4.57,3.37,7.68,8.25,9.5,14.94,1.66,6.09,2.65,13.77,2.97,22.89h-17.5v-7.77c0-4.95-.73-8.85-2.25-11.95-2.16-4.4-6.39-6.92-11.61-6.92-3.68,0-15.71,1.35-15.71,18.68v78.01c0,5.97.83,10.55,2.52,14,2.37,4.83,6.78,7.49,12.44,7.49s10.07-2.66,12.44-7.48c1.7-3.46,2.53-8.04,2.53-14.01v-29.74h-8.48v-14.4h25.36v80.41h-1.51l-3.67-9.28-5.14-12.99-6.88,12.16c-4.48,7.92-10.95,11.61-20.36,11.61s-15.71-3.07-20.02-9.38c-4.79-7.01-7.22-18.27-7.22-33.46v-69.38c0-13.17,2.75-23.07,8.17-29.42,5.23-6.12,13.1-9.1,24.05-9.1M349.84,231.28c-12.9,0-22.61,3.81-29.12,11.44-6.51,7.63-9.77,18.88-9.77,33.75v69.38c0,16.63,2.79,29.04,8.39,37.22,5.59,8.19,14.1,12.28,25.53,12.28s20.52-5,26.17-15l5.34,13.5h12.72v-93.76h-38.71v27.75h8.48v23.07c0,4.87-.62,8.56-1.84,11.06-1.23,2.5-3.38,3.75-6.45,3.75s-5.22-1.25-6.45-3.75c-1.23-2.5-1.84-6.19-1.84-11.06v-78.01c0-8,3.01-12,9.03-12,2.7,0,4.58,1.06,5.62,3.19,1.04,2.13,1.57,5.13,1.57,9v14.44h30.96c0-12.75-1.11-23.19-3.32-31.32-2.21-8.13-6.21-14.31-11.98-18.57-5.78-4.25-13.89-6.37-24.33-6.37h0Z" fill="#17c8d3"/>
    <path d="M472.74,239.46v147.73h-18.8l-14.79-75.25-13.22,1.29v73.96h-17.62v-147.73h20.42l13.53,71.63,13.23-1.24v-70.4h17.25M479.41,232.78h-30.6v77.07l-14.56-77.07h-32.62v161.08h30.96v-80.63l15.85,80.63h30.96v-161.08h0Z" fill="#17c8d3"/>
    <path d="M526.78,237.96c12.08,0,20.7,3.05,25.61,9.08,4.41,5.41,6.99,13.87,7.7,25.2h-18.82l-.07-4.45c-.02-4.77-1.93-7.82-3.55-9.56-1.7-1.82-4.78-3.99-9.76-3.99-5.52,0-8.76,2.34-10.5,4.29-2.35,2.63-3.54,6.02-3.54,10.08,0,7.11,3.66,14.22,10.89,21.12l18.37,17.95c4.04,3.99,7.41,7.8,10.02,11.32,2.39,3.23,4.36,7.14,5.85,11.63,1.49,4.49,2.24,10,2.24,16.37,0,14.41-2.48,25.27-7.37,32.28-4.42,6.34-11.89,9.43-22.82,9.43-12.31,0-21.11-2.9-26.14-8.62-5.25-5.96-7.92-16.27-7.92-30.65v-9.08h17.8v13.39c0,17.33,10.89,18.67,14.23,18.67,6.48,0,9.82-3.02,11.48-5.55,1.88-2.86,2.75-6.74,2.75-12.19,0-6.07-.73-11.06-2.23-15.28-1.48-4.14-3.44-7.71-5.84-10.63-2.08-2.51-5.56-6.19-10.65-11.24l-13.61-13.85-.03-.03-.03-.03c-9.34-9.28-13.88-19.14-13.88-30.14,0-12.04,2.59-21.14,7.68-27.05,4.92-5.7,12.16-8.47,22.13-8.47M526.78,231.28c-11.92,0-20.98,3.59-27.19,10.78-6.2,7.19-9.31,17.66-9.31,31.41,0,12.75,5.28,24.38,15.85,34.88l13.64,13.88c4.91,4.87,8.32,8.47,10.23,10.78,1.9,2.31,3.47,5.19,4.7,8.63,1.23,3.44,1.84,7.78,1.84,13.03,0,4-.55,6.85-1.66,8.53-1.11,1.69-3.07,2.53-5.9,2.53-5.04,0-7.56-4-7.56-12v-20.07h-31.15v15.75c0,16.13,3.19,27.82,9.58,35.06,6.39,7.25,16.77,10.88,31.15,10.88,13.15,0,22.58-4.09,28.29-12.28,5.72-8.18,8.57-20.22,8.57-36.1,0-7.13-.86-13.28-2.58-18.47-1.72-5.19-3.99-9.69-6.82-13.5-2.83-3.81-6.39-7.84-10.69-12.09l-18.43-18c-5.9-5.63-8.85-11.06-8.85-16.31,0-2.37.61-4.25,1.84-5.63,1.23-1.37,3.07-2.06,5.53-2.06,2.09,0,3.72.63,4.88,1.88,1.16,1.25,1.75,2.94,1.75,5.06l.19,11.06h32.25c0-16.37-3.13-28.41-9.4-36.1-6.27-7.69-16.53-11.53-30.78-11.53h0Z" fill="#17c8d3"/>
  </g>
  <g>
    <path d="M18.65,27.1h50.51c15.28,0,26.18,4.93,32.71,14.8,6.53,9.87,9.79,24.29,9.79,43.27s-2.89,33.3-8.68,42.94c-5.78,9.64-16.17,14.46-31.15,14.46h-15.58v75.65H18.65V27.1ZM58.48,108.09c4.6,0,7.97-.85,10.12-2.56,2.15-1.7,3.56-4.15,4.23-7.34s1-7.75,1-13.69c0-8.01-.89-13.8-2.67-17.36s-5.34-5.34-10.68-5.34h-4.23v46.28h2.23Z" fill="#fff"/>
    <path d="M121.89,218.23V27.1h36.93v191.13h-36.93Z" fill="#fff"/>
    <path d="M168.61,218.23l20.47-101.46-16.24-89.89h37.38l10.01,65.86,8.68-65.86h37.6l-16.47,89.89,20.47,101.46h-38.71l-12.02-74.76-12.24,74.76h-38.94Z" fill="#fff"/>
    <path d="M281.86,218.23V27.1h76.54v36.93h-37.61v37.16h36.05v36.04h-36.05v43.83h40.05v37.16h-78.99Z" fill="#fff"/>
    <path d="M373.53,218.23V27.1h38.27v158.64h39.38v32.48h-77.65Z" fill="#fff"/>
    <path d="M461.86,27.1h52.73c13.65,0,23.88,3.78,30.71,11.35,6.82,7.56,10.31,18.77,10.46,33.6l.45,89.45c.14,18.84-3.11,33.01-9.79,42.5-6.67,9.49-17.73,14.24-33.15,14.24h-51.4V27.1ZM507.03,184.41c6.97,0,10.46-3.41,10.46-10.24v-98.57c0-4.3-.34-7.52-1-9.68-.67-2.15-1.89-3.59-3.67-4.34-1.78-.74-4.52-1.11-8.23-1.11h-4.23v123.93h6.67Z" fill="#e73620"/>
    <path d="M566.43,218.23l18.47-191.13h64.75l18.24,191.13h-36.27l-2.67-30.93h-23.14l-2.23,30.93h-37.16ZM608.7,156.82h17.36l-8.46-97.23h-1.78l-7.12,97.23Z" fill="#e73620"/>
    <path d="M679.46,27.1h51.84c13.94,0,24.07,3.42,30.37,10.24,6.3,6.82,9.46,17.95,9.46,33.37v8.46c0,18.24-6.53,29.15-19.58,32.71,8.01,2.08,13.65,6.9,16.91,14.46,3.26,7.57,4.89,17.58,4.89,30.04,0,20.32-3.04,35.71-9.12,46.17-6.08,10.46-17.06,15.69-32.93,15.69h-51.84V27.1ZM724.63,98.97c3.26,0,5.49-1.22,6.67-3.67,1.19-2.45,1.78-5.9,1.78-10.35v-19.14c0-6.23-2.75-9.34-8.23-9.34h-8.01v42.5h7.79ZM735.53,170.39v-23.81c0-5.79-.86-10.16-2.56-13.13-1.7-2.97-4.71-4.45-9.01-4.45h-7.12v55.4l3.78.22c9.94,0,14.91-4.75,14.91-14.24Z" fill="#e73620"/>
  </g>
</svg>